<?xml version="1.0" encoding="utf-8"?>
<!-- Generator: Adobe Illustrator 26.1.0, SVG Export Plug-In . SVG Version: 6.00 Build 0)  -->
<svg version="1.1" id="Layer_1" xmlns="http://www.w3.org/2000/svg" xmlns:xlink="http://www.w3.org/1999/xlink" x="0px" y="0px"
	 viewBox="0 0 69 80" style="enable-background:new 0 0 69 80;" xml:space="preserve">
<style type="text/css">
	.st0{fill:#97FBF6;}
	.st1{fill:#FE004A;}
	.st2{fill:#00F5EA;}
	.st3{fill:#01F5EA;}
</style>
<g id="Group_20" transform="translate(6362 -124)">
	<path id="Path_1" class="st0" d="M-6314.6,124l0,2c-0.4-0.2-0.3-0.6-0.3-0.9c0-0.5-0.2-0.7-0.7-0.7c-3.6,0-7.2,0-10.8,0
		c-0.6,0-0.8,0.2-0.8,0.8c0,0.3,0,0.5,0,0.8c0,16.2,0,32.5,0,48.7c0,0.5,0.2,1-0.4,1.4c0-0.4,0-0.9,0-1.3c0-16.6,0-33.1,0-49.7
		c0-0.4,0-0.7,0-1.1L-6314.6,124z"/>
	<path id="Path_2" d="M-6343.4,186.4l0.3,0.2c0.7,0.5,1.2,1.1,1.8,1.6c4.5,3.7,11.2,3.1,14.9-1.4c1.2-1.5,2-3.2,2.3-5.1
		c0.1-0.6,0.1-1.1,0.1-1.7c0-17,0-34,0-51c0-1.9,0-2,1.9-2c2.2,0,4.4,0,6.7,0c0.4,0,0.7-0.1,1,0.2c0,0,0,0,0.1,0.1
		c0.2,0.3,0.3,0.7,0.4,1c0.9,3.9,3.1,7.4,6.2,10c0.5,0.4,0.9,0.8,1.4,1.2l0.4,0.4c1.6,1.5,3.5,2.8,5.5,3.9c1,0.4,2,0.8,3,1.1
		c0.3,0,0.5,0.2,0.7,0.3c0,0,0,0.1,0.1,0.1c0.2,0.3,0.2,0.6,0.2,0.9c0,2.8,0,5.6,0,8.3c0,1.2-0.2,1.3-1.3,1.2
		c-2.2-0.1-4.4-0.4-6.6-1c-3.2-0.8-6.3-2.2-9.1-4.1c-0.2-0.1-0.4-0.2-0.6-0.4c-0.2-0.1-0.3,0-0.4,0.2c0,0.2,0,0.5,0,0.7
		c0,8.6,0,17.3,0,25.9c0,4-1.1,8-3.1,11.5c-2.3,4.2-5.7,7.5-9.9,9.7c-2.6,1.4-5.5,2.3-8.5,2.6c-4.6,0.5-9.2-0.4-13.3-2.6
		c-0.7-0.4-1.3-0.8-1.9-1.3l-1-0.8c-3.5-3.7-5.7-8.6-6.2-13.7c-0.9-6.7,1.1-13.5,5.5-18.7c3.8-4.8,9.4-7.8,15.5-8.5
		c0.7-0.2,1.4-0.2,2.1,0c0,0,0,0,0.1,0.1c0.1,0.3,0.2,0.6,0.1,0.9c0,2.8,0,5.7,0,8.5c0,1.1-0.1,1.2-1.2,0.9
		c-5.7-1.2-11.4,2.4-12.6,8.1c-0.1,0.3-0.1,0.7-0.2,1c-0.7,4.1,1.1,8.2,4.5,10.5C-6344.1,185.8-6343.8,186.1-6343.4,186.4z"/>
	<path id="Path_3" class="st1" d="M-6351.2,197.2c1.5,0.8,3.1,1.6,4.8,2.3c12.3,4.4,25.9-2,30.4-14.3c0.6-1.6,1-3.3,1.2-5
		c0.1-1.1,0.2-2.2,0.2-3.2c0-8.3,0-16.6,0-24.8c-0.1-0.3,0-0.6,0.1-0.9c0.9,0.5,1.8,1.1,2.6,1.6c4.4,2.5,9.4,3.9,14.5,4
		c0.6,0,0.7-0.2,0.7-0.7c0-3.1,0-6.2,0-9.3c1.1,0.2,2.2,0.3,3.3,0.3c0.5,0,0.4,0.3,0.4,0.6c0,2.1,0,4.2,0,6.4c0,1.7,0,3.4,0,5.1
		c0,0.6-0.1,0.7-0.7,0.7c-5.8-0.1-11.5-1.9-16.4-5.1l-0.7-0.5c-0.2,0.3-0.1,0.6-0.1,0.9c0,8.4,0,16.8,0,25.2c0,11-7.6,20.6-18.4,23
		c-7.6,1.9-15.6-0.2-21.3-5.5C-6350.8,197.7-6351,197.4-6351.2,197.2z"/>
	<path id="Path_4" class="st2" d="M-6314.5,127.2c-2.8,0-5.7,0-8.5,0c-0.6,0-0.8,0.2-0.8,0.8c0,16.6,0,33.3,0,49.9
		c0.2,6-4.5,11-10.5,11.3c-3.2,0.1-6.4-1.2-8.5-3.6c-0.1-0.2-0.3-0.3-0.4-0.5c1.7,0.7,3.6,1.1,5.5,1c5.4-0.4,9.6-4.6,10.1-10
		c0.1-0.4,0.2-0.8,0.1-1.1c0-16.6,0-33.2,0-49.8c0-1.1-0.1-1,1-1c3.5,0,7.1,0,10.6,0c1.2,0,1.2,0,1.2,1.1c0,0.3-0.1,0.5,0.1,0.8
		C-6314.6,126.4-6314.6,126.8-6314.5,127.2z"/>
	<path id="Path_5" class="st2" d="M-6335.2,156.6c-3.9,0.1-7.6,1.1-11,3c-11.4,6.4-15.5,20.8-9.2,32.2c0.8,1.4,1.7,2.7,2.8,4
		c0.2,0.2,0.4,0.3,0.4,0.6c-4.5-3.1-7.7-7.7-9.1-12.9c-3.5-12.6,4-25.7,16.6-29.2c2.9-0.8,5.8-1,8.8-0.7c0.5,0,0.7,0.2,0.7,0.7
		C-6335.2,155.1-6335.2,155.9-6335.2,156.6z"/>
	<path id="Path_6" class="st1" d="M-6343.4,186.1c-5.3-2.7-7.4-9.3-4.7-14.6c1.5-3,4.3-5,7.6-5.7c0.9-0.1,1.8-0.2,2.7-0.2
		c0.9,0.1,1.8,0.2,2.7,0.4V156c1.1-0.1,2.2,0,3.3,0.1c0.5,0,0.4,0.4,0.4,0.7c0,2.3,0,4.6,0,7c0,1.6,0,3.3,0,4.9
		c0,0.4-0.1,0.6-0.6,0.5c-5.8-1.5-11.7,1.9-13.2,7.7c-0.8,3.1-0.2,6.4,1.6,9C-6343.5,185.9-6343.5,186-6343.4,186.1z"/>
	<path id="Path_7" class="st1" d="M-6306.5,139.1c-2.3-1.4-4.2-3.4-5.6-5.7c-1.2-1.9-2-4-2.3-6.2c1,0,2,0,3,0c0.5,0,0.6,0.2,0.6,0.6
		c0,3.7,1.3,7.3,3.5,10.2C-6307.1,138.4-6306.8,138.7-6306.5,139.1z"/>
	<path id="Path_8" class="st3" d="M-6296.8,145.1c-3.6-0.7-6.8-2.5-9.2-5.2c1.9,1.1,4,1.8,6.2,2.2c0.9,0.2,1.7,0.2,2.6,0.2
		c0.4,0,0.6,0.1,0.5,0.5C-6296.8,143.7-6296.8,144.4-6296.8,145.1z"/>
</g>
</svg>
