<svg xmlns="http://www.w3.org/2000/svg" xmlns:xlink="http://www.w3.org/1999/xlink" width="1440" height="900" viewBox="0 0 1440 900">
  <defs>
    <clipPath id="clip-Laad_Scherm">
      <rect width="1440" height="900"/>
    </clipPath>
  </defs>
  <g id="Laad_Scherm" data-name="Laad Scherm" clip-path="url(#clip-Laad_Scherm)">
    <rect width="1440" height="900" fill="#070404"/>
    <rect id="Rectangle_79" data-name="Rectangle 79" width="29" height="27" transform="translate(196 730)" fill="#00f7ef"/>
    <rect id="Rectangle_31" data-name="Rectangle 31" width="29" height="28" transform="translate(1273 570)" fill="#ff0050"/>
    <rect id="Rectangle_33" data-name="Rectangle 33" width="93" height="28" transform="translate(1236 269)" fill="#ff0050"/>
    <rect id="Rectangle_34" data-name="Rectangle 34" width="163" height="27" transform="translate(1298 297)" fill="#00f7ef"/>
    <rect id="Rectangle_40" data-name="Rectangle 40" width="163" height="27" transform="translate(1292 724)" fill="#00f7ef"/>
    <rect id="Rectangle_50" data-name="Rectangle 50" width="163" height="28" transform="translate(1225 752)" fill="#ff0050"/>
    <rect id="Rectangle_80" data-name="Rectangle 80" width="163" height="27" transform="translate(1205 439)" fill="#00f7ef"/>
    <rect id="Rectangle_57" data-name="Rectangle 57" width="29" height="27" transform="translate(598 841)" fill="#00f7ef"/>
    <rect id="Rectangle_17" data-name="Rectangle 17" width="29" height="28" transform="translate(176 711)" fill="#ff0050"/>
    <rect id="Rectangle_18" data-name="Rectangle 18" width="29" height="27" transform="translate(1098 432)" fill="#00f7ef"/>
    <rect id="Rectangle_19" data-name="Rectangle 19" width="29" height="28" transform="translate(1069 845)" fill="#ff0050"/>
    <rect id="Rectangle_21" data-name="Rectangle 21" width="29" height="27" transform="translate(1098 432)" fill="#00f7ef"/>
    <rect id="Rectangle_22" data-name="Rectangle 22" width="29" height="27" transform="translate(523 14)" fill="#00f7ef"/>
    <rect id="Rectangle_23" data-name="Rectangle 23" width="29" height="28" transform="translate(195 356)" fill="#ff0050"/>
    <rect id="Rectangle_28" data-name="Rectangle 28" width="29" height="28" transform="translate(892 85)" fill="#ff0050"/>
    <rect id="Rectangle_29" data-name="Rectangle 29" width="29" height="27" transform="translate(676 163)" fill="#00f7ef"/>
    <rect id="Rectangle_32" data-name="Rectangle 32" width="89" height="28" transform="translate(456 787)" fill="#ff0050"/>
    <rect id="Rectangle_36" data-name="Rectangle 36" width="163" height="27" transform="translate(255 138)" fill="#00f7ef"/>
    <rect id="Rectangle_39" data-name="Rectangle 39" width="111" height="28" transform="translate(182 166)" fill="#ff0050"/>
    <rect id="Rectangle_12" data-name="Rectangle 12" width="87" height="27" transform="translate(130 579)" fill="#00f7ef"/>
    <rect id="Rectangle_41" data-name="Rectangle 41" width="86" height="28" transform="translate(620 68)" fill="#ff0050"/>
    <rect id="Rectangle_48" data-name="Rectangle 48" width="29" height="28" transform="translate(384 34)" fill="#ff0050"/>
    <rect id="Rectangle_56" data-name="Rectangle 56" width="29" height="27" transform="translate(332 414)" fill="#00f7ef"/>
    <rect id="Rectangle_64" data-name="Rectangle 64" width="69" height="27" transform="translate(169 5)" fill="#00f7ef"/>
    <rect id="Rectangle_75" data-name="Rectangle 75" width="96" height="28" transform="translate(914 193)" fill="#00f7ef"/>
    <rect id="Rectangle_83" data-name="Rectangle 83" width="29" height="27" transform="translate(371 668)" fill="#00f7ef"/>
    <rect id="Rectangle_147" data-name="Rectangle 147" width="94" height="27" transform="translate(995 749)" fill="#00f7ef"/>
    <rect id="Rectangle_25" data-name="Rectangle 25" width="29" height="28" transform="translate(1351 135)" fill="#ff0050"/>
    <rect id="Rectangle_47" data-name="Rectangle 47" width="29" height="27" transform="translate(1429 458)" fill="#00f7ef"/>
    <rect id="Rectangle_43" data-name="Rectangle 43" width="163" height="27" transform="translate(1131 42)" fill="#00f7ef"/>
    <rect id="Rectangle_72" data-name="Rectangle 72" width="95" height="28" transform="translate(1366 -5)" fill="#ff0050"/>
    <rect id="Rectangle_84" data-name="Rectangle 84" width="103" height="27" transform="translate(821 -5)" fill="#00f7ef"/>
    <rect id="Rectangle_37" data-name="Rectangle 37" width="163" height="28" transform="translate(720 872)" fill="#ff0050"/>
    <rect id="Rectangle_27" data-name="Rectangle 27" width="29" height="28" transform="translate(88 28)" fill="#00f7ef"/>
    <rect id="Rectangle_62" data-name="Rectangle 62" width="29" height="27" transform="translate(88 329)" fill="#00f7ef"/>
    <rect id="Rectangle_24" data-name="Rectangle 24" width="29" height="27" transform="translate(413 830)" fill="#00f7ef"/>
    <rect id="Rectangle_42" data-name="Rectangle 42" width="163" height="27" transform="translate(106 845)" fill="#00f7ef"/>
    <rect id="Rectangle_44" data-name="Rectangle 44" width="29" height="28" transform="translate(88 872)" fill="#ff0050"/>
    <rect id="Rectangle_30" data-name="Rectangle 30" width="29" height="28" transform="translate(52 503)" fill="#ff0050"/>
    <rect id="Rectangle_70" data-name="Rectangle 70" width="163" height="28" transform="translate(-103 693)" fill="#ff0050"/>
    <rect id="Rectangle_151" data-name="Rectangle 151" width="30" height="28" transform="translate(755 735)" fill="#ff0050"/>
    <rect id="Rectangle_153" data-name="Rectangle 153" width="120" height="27" transform="translate(1062 606)" fill="#ff0050"/>
    <rect id="Rectangle_155" data-name="Rectangle 155" width="87" height="27" transform="translate(-27 207)" fill="#00f7ef"/>
  </g>
</svg>
