<svg xmlns="http://www.w3.org/2000/svg" width="228" height="108" viewBox="0 0 228 108">
  <g id="Group_59" data-name="Group 59" transform="translate(-6362 138)">
    <g id="Group_20" data-name="Group 20" transform="translate(6362 -124)">
      <path id="Path_1" data-name="Path 1" d="M943.1,0l-.022,2.045c-.444-.187-.346-.6-.349-.935,0-.522-.224-.731-.742-.731q-5.39,0-10.782,0c-.558,0-.792.239-.765.785.014.265,0,.531,0,.8q0,24.358-.012,48.717c0,.462.231,1.032-.352,1.363-.009-.433-.026-.867-.026-1.3q0-24.828,0-49.655c0-.362.007-.724.01-1.086Z" transform="translate(-895.617)" fill="#97fbf6"/>
      <path id="Path_2" data-name="Path 2" d="M884.042,65.26l.265.211c.66.465,1.18,1.094,1.8,1.606a10.568,10.568,0,0,0,17.154-6.51,9.343,9.343,0,0,0,.106-1.7q0-25.518,0-51.036c0-1.938.016-1.955,1.891-1.955,2.221,0,4.442,0,6.663,0,.354,0,.732-.069,1.035.214.021.021.043.041.067.06a2.313,2.313,0,0,1,.357,1.038,18.266,18.266,0,0,0,6.194,9.961,16.2,16.2,0,0,1,1.378,1.194l.45.4a25.022,25.022,0,0,0,5.486,3.892,27.152,27.152,0,0,0,3.043,1.123,1.434,1.434,0,0,1,.711.327c.017.031.034.06.053.089a1.268,1.268,0,0,1,.187.921q.008,4.165,0,8.329c0,1.16-.231,1.3-1.336,1.238a32.217,32.217,0,0,1-6.577-.967,30.369,30.369,0,0,1-9.115-4.087,6.1,6.1,0,0,0-.551-.357c-.2-.1-.324-.043-.359.186a4.856,4.856,0,0,0-.022.742q0,12.941,0,25.881a23.4,23.4,0,0,1-3.054,11.485,23.893,23.893,0,0,1-9.894,9.74,22.985,22.985,0,0,1-8.493,2.56,23.608,23.608,0,0,1-13.332-2.562,15.428,15.428,0,0,1-1.865-1.27l-.959-.787a23.251,23.251,0,0,1-6.216-13.688,24.151,24.151,0,0,1,5.52-18.724,23.216,23.216,0,0,1,15.519-8.5,3.843,3.843,0,0,1,2.134.021.731.731,0,0,0,.063.063,1.488,1.488,0,0,1,.137.865q.006,4.274,0,8.547c0,1.115-.1,1.184-1.189.95a10.6,10.6,0,0,0-12.784,9.155,10.713,10.713,0,0,0,4.513,10.519A8.213,8.213,0,0,1,884.042,65.26Z" transform="translate(-865.376 -2.904)"/>
      <path id="Path_3" data-name="Path 3" d="M883.491,91.636a44.73,44.73,0,0,0,4.752,2.255A23.737,23.737,0,0,0,919.8,74.544a26.873,26.873,0,0,0,.172-3.25q.006-12.421.007-24.843a1.527,1.527,0,0,1,.095-.875c.889.544,1.752,1.1,2.643,1.613A30.962,30.962,0,0,0,937.21,51.2c.58.02.669-.192.667-.7-.011-3.114.011-6.227.021-9.34a26.814,26.814,0,0,0,3.306.333c.525-.008.425.332.425.63q0,3.187,0,6.375c0,1.715-.024,3.43.014,5.143.012.554-.15.686-.689.671A30.671,30.671,0,0,1,924.6,49.18l-.722-.478c-.231.3-.131.6-.131.875-.007,8.4.024,16.808-.014,25.211A23.494,23.494,0,0,1,905.373,97.78a23.2,23.2,0,0,1-21.281-5.523C883.876,92.068,883.69,91.844,883.491,91.636Z" transform="translate(-872.578 -18.426)" fill="#fe004a"/>
      <path id="Path_4" data-name="Path 4" d="M928.013,3.321c-2.846.011-5.693.044-8.539.016-.643-.007-.8.162-.8.8q.027,24.95.025,49.9a10.864,10.864,0,0,1-18.963,7.635c-.141-.16-.253-.347-.378-.521a12.451,12.451,0,0,0,5.481,1.013,10.847,10.847,0,0,0,10.051-9.983A2.159,2.159,0,0,0,915,51.047q.008-24.9.007-49.8c0-1.081-.114-.956.972-.957q5.318-.007,10.636,0c1.161,0,1.156,0,1.168,1.129,0,.259-.07.534.108.771Q927.954,2.753,928.013,3.321Z" transform="translate(-880.431 -0.14)" fill="#00f5ea"/>
      <path id="Path_5" data-name="Path 5" d="M888.8,57.678a24.369,24.369,0,0,0-10.993,3.007,23.689,23.689,0,0,0-6.385,36.183c.165.19.439.321.421.637a22.793,22.793,0,0,1-9.095-12.943,23.741,23.741,0,0,1,25.409-29.87c.49.049.733.189.689.744C888.787,56.18,888.812,56.931,888.8,57.678Z" transform="translate(-861.89 -25.062)" fill="#00f5ea"/>
      <path id="Path_6" data-name="Path 6" d="M893.088,90.875A10.812,10.812,0,0,1,896,70.645a13.571,13.571,0,0,1,2.665-.172,15.393,15.393,0,0,1,2.734.441v-10.1a19.166,19.166,0,0,1,3.318.108c.5.041.41.37.41.669q0,3.475,0,6.951c0,1.641-.011,3.283.008,4.924.005.434-.057.609-.557.474A10.824,10.824,0,0,0,893,90.68,1.274,1.274,0,0,1,893.088,90.875Z" transform="translate(-874.422 -28.832)" fill="#fe004a"/>
      <path id="Path_7" data-name="Path 7" d="M964.135,18.238a16.5,16.5,0,0,1-5.62-5.7,15.911,15.911,0,0,1-2.308-6.174c.986-.013,1.973,0,2.958-.047.46-.02.562.151.563.581a16.953,16.953,0,0,0,3.527,10.2C963.539,17.483,963.841,17.857,964.135,18.238Z" transform="translate(-908.557 -3.125)" fill="#fe004a"/>
      <path id="Path_8" data-name="Path 8" d="M982.03,35.885a16.859,16.859,0,0,1-9.24-5.2,19.937,19.937,0,0,0,6.152,2.241,14.038,14.038,0,0,0,2.59.245c.413-.01.553.138.534.546C982.033,34.437,982.04,35.161,982.03,35.885Z" transform="translate(-916.763 -14.77)" fill="#01f5ea"/>
    </g>
    <text id="Filter_Bubble" data-name="Filter 
Bubble" transform="translate(6448 -93)" fill="#fff" font-size="42" font-family="Manrope-Bold, Manrope" font-weight="700"><tspan x="0" y="0">Filter </tspan><tspan x="0" y="50">Bubble</tspan></text>
  </g>
</svg>
