<?xml version="1.0" encoding="utf-8"?>
<!-- Generator: Adobe Illustrator 26.1.0, SVG Export Plug-In . SVG Version: 6.00 Build 0)  -->
<svg version="1.1" id="Layer_1" xmlns="http://www.w3.org/2000/svg" xmlns:xlink="http://www.w3.org/1999/xlink" x="0px" y="0px"
	 viewBox="0 0 185.1 150.6" style="enable-background:new 0 0 185.1 150.6;" xml:space="preserve">
<style type="text/css">
	.st0{fill:#97FBF6;}
	.st1{fill:#FE004A;}
	.st2{fill:#00F5EA;}
	.st3{fill:#01F5EA;}
	.st4{fill:#FFFFFF;}
</style>
<g>
	<path class="st0" d="M-680.7,0.5c0,2.6-0.1,5.2-0.1,7.8c-1.7-0.7-1.3-2.3-1.3-3.6c0-2-0.9-2.8-2.8-2.8c-13.7,0-27.4,0-41.1,0
		c-2.1,0-3,0.9-2.9,3c0.1,1,0,2,0,3c0,61.9,0,123.9,0,185.8c0,1.8,0.9,3.9-1.3,5.2c0-1.7-0.1-3.3-0.1-5c0-63.1,0-126.3,0-189.4
		c0-1.4,0-2.8,0-4.1C-713.9,0.5-697.3,0.5-680.7,0.5z"/>
	<path d="M-790.7,232.5c0.3,0.3,0.7,0.5,1,0.8c2.5,1.7,4.5,4.1,6.9,6c24.1,19.3,59.7,6.1,65.4-24.2c0.4-2.1,0.4-4.2,0.4-6.3
		c0-63.2,0-126.4,0-189.6c0-7.2,0.1-7.3,7.2-7.3c8.5,0,16.9,0,25.4,0c1.4,0,2.8-0.3,3.9,0.8c0.1,0.1,0.2,0.2,0.3,0.2
		c1,1.1,1,2.5,1.4,3.9c3.7,15,11.7,27.2,23.6,37c1.8,1.5,3.6,2.8,5.3,4.4c0.6,0.5,1.1,1,1.7,1.5c6.6,5.4,13,10.9,20.9,14.5
		c3.8,1.7,7.7,2.9,11.6,4.2c1,0.3,2,0.4,2.7,1.2c0.1,0.1,0.1,0.2,0.2,0.3c0.9,1,0.7,2.2,0.7,3.4c0,10.3,0,20.6,0,30.9
		c0,4.3-0.9,4.8-5.1,4.6c-8.5-0.4-16.9-1.5-25.1-3.6c-12.4-3.2-24-8.2-34.8-15.2c-0.7-0.5-1.4-1-2.1-1.3c-0.8-0.4-1.2-0.2-1.4,0.7
		c-0.1,0.9-0.1,1.8-0.1,2.8c0,32,0,64.1,0,96.1c0,15.3-4.2,29.4-11.7,42.7c-8.9,15.8-21.7,27.8-37.7,36.2c-10.1,5.3-21,8.3-32.4,9.5
		c-17.9,1.8-34.8-1.6-50.9-9.5c-2.6-1.3-4.8-3.1-7.1-4.7c-1.2-1-2.4-1.9-3.7-2.9c-13.8-14.2-21.5-31.4-23.7-50.9
		c-3-26.1,4.1-49.5,21.1-69.6c15.5-18.3,35.4-28.7,59.2-31.6c2.7-0.3,5.4-1.1,8.1,0.1c0.1,0.1,0.2,0.2,0.2,0.2
		c0.7,1,0.5,2.1,0.5,3.2c0,10.6,0,21.2,0,31.8c0,4.1-0.4,4.4-4.5,3.5c-23.3-4.9-45.7,10.4-48.8,34c-2.1,16.2,3.9,29.4,17.2,39.1
		C-793.2,230.3-791.9,231.3-790.7,232.5z"/>
	<path class="st1" d="M-820.3,272.4c6,3,11.8,6.3,18.1,8.6c54.2,19.7,113.4-16.6,120.4-73.8c0.5-4.1,0.7-8.3,0.7-12.4
		c0-31.6,0-63.2,0-94.8c0-1.1-0.3-2.2,0.4-3.3c3.4,2.1,6.7,4.2,10.1,6.2c17.1,9.8,35.6,14.6,55.3,15.3c2.2,0.1,2.6-0.7,2.5-2.7
		c0-11.9,0-23.8,0.1-35.6c4.2,0.5,8.4,1.3,12.6,1.3c2,0,1.6,1.3,1.6,2.4c0,8.1,0,16.2,0,24.3c0,6.5-0.1,13.1,0.1,19.6
		c0,2.1-0.6,2.6-2.6,2.6c-22.7-0.6-43.5-7.1-62.4-19.6c-0.9-0.6-1.8-1.2-2.8-1.8c-0.9,1.1-0.5,2.3-0.5,3.3c0,32.1,0.1,64.1-0.1,96.2
		c-0.2,42.3-28.9,78.5-70,87.7c-30.4,6.8-57.6-0.5-81.2-21.1C-818.8,274.1-819.5,273.2-820.3,272.4z"/>
	<path class="st2" d="M-680.4,12.6c-10.9,0-21.7,0.2-32.6,0.1c-2.5,0-3,0.6-3,3c0.1,63.5,0,126.9,0.1,190.4
		c0,13.3-4.5,24.5-14.7,33.2c-17,14.6-42.8,12.7-57.7-4.1c-0.5-0.6-1-1.3-1.4-2c6.7,2.7,13.6,4.3,20.9,3.9
		c20.1-1.1,37.1-18,38.3-38.1c0.8-1.4,0.4-2.9,0.4-4.3c0-63.3,0-126.7,0-190c0-4.1-0.4-3.6,3.7-3.7c13.5,0,27.1,0,40.6,0
		c4.4,0,4.4,0,4.5,4.3c0,1-0.3,2,0.4,2.9C-680.7,9.8-680.5,11.2-680.4,12.6z"/>
	<path class="st2" d="M-759.2,117.6c-14.9,0.6-28.9,4.2-41.9,11.5c-50,27.7-61.9,94.9-24.4,138c0.6,0.7,1.7,1.2,1.6,2.4
		c-17.4-12.3-29.1-28.8-34.7-49.4c-13.8-50.9,17.3-101.6,68.9-112.6c9.3-2,18.6-2.3,28-1.4c1.9,0.2,2.8,0.7,2.6,2.8
		C-759.3,111.8-759.2,114.7-759.2,117.6z"/>
	<path class="st1" d="M-790.7,232.5c-15.1-7.3-24.4-25-22-41.9c2.5-17.7,16-32.1,33.1-35.2c3.4-0.6,6.8-0.7,10.2-0.7
		c3.4,0.1,6.7,0.9,10.4,1.7c0-13,0-25.8,0-38.5c4.2-0.4,8.4,0.1,12.7,0.4c1.9,0.2,1.6,1.4,1.6,2.6c0,8.8,0,17.7,0,26.5
		c0,6.3,0,12.5,0,18.8c0,1.7-0.2,2.3-2.1,1.8c-17.3-4.7-35,2.7-44.5,16.4c-9.9,14.4-9.8,31.9,0.3,47.4
		C-790.9,231.9-790.8,232.2-790.7,232.5z"/>
	<path class="st1" d="M-649.9,58.2c-9.1-5.4-16-12.9-21.4-21.7c-4.5-7.3-7.6-15-8.8-23.6c3.8,0,7.5,0,11.3-0.2
		c1.8-0.1,2.1,0.6,2.1,2.2c0,14.5,5,27.3,13.5,38.9C-652.2,55.3-651,56.7-649.9,58.2z"/>
	<path class="st3" d="M-612.9,79.5c-13.9-2.8-25.6-9.4-35.2-19.8c7.4,3.9,15.1,7.2,23.5,8.5c3.3,0.5,6.6,1,9.9,0.9
		c1.6,0,2.1,0.5,2,2.1C-612.9,74-612.9,76.7-612.9,79.5z"/>
</g>
<path class="st4" d="M43.1,73.3c0,10.3,0,20.7,0,31c0,17.8,11.1,29,28.9,29c4.2,0,8.3-0.2,12.5,0c5,0.2,9.3,4.4,9.3,8.7
	c-0.1,4.4-4.2,8.4-9.3,8.5c-10.1,0.2-20.3,1.1-30.2-2.5c-16-5.8-28.3-22.1-28.5-39.2c-0.3-23,0-46,0-69c0-0.7,0.1-1.3,0-2
	c-0.2-1.4,0.6-3.4-1-4.1c-1.9-0.8-2.8,1.2-3.9,2.4c-0.1,0.1-0.2,0.3-0.3,0.4C11.8,46.8,9.3,46.7,0.9,35.9c-1.3-1.7-1.2-2.9,0.2-4.3
	c9.3-9.7,18.6-19.6,28-29.2c3.3-3.4,7.6-3.3,11.5,0.7c9.3,9.5,18.3,19.3,27.5,29c1.4,1.5,1,2.5-0.2,3.7c-1.4,1.4-2.8,2.8-4.3,4.2
	c-6.3,6.1-6.3,6.1-12.4-0.5c-2.1-2.2-4.1-6.6-6.9-5.6c-2.8,1.1-1.3,5.7-1.3,8.8C43,52.9,43.1,63.1,43.1,73.3z"/>
<path class="st4" d="M142,77.4c0-10.3,0-20.7,0-31c0-17.8-11.1-29-28.9-29c-4.2,0-8.3,0.2-12.5,0c-5-0.2-9.3-4.4-9.3-8.7
	c0.1-4.4,4.2-8.4,9.3-8.5c10.1-0.2,20.3-1.1,30.2,2.5c16,5.8,28.3,22.1,28.5,39.2c0.3,23,0,46,0,69c0,0.7-0.1,1.3,0,2
	c0.2,1.4-0.6,3.4,1,4.1c1.9,0.8,2.8-1.2,3.9-2.4c0.1-0.1,0.2-0.3,0.3-0.4c8.8-10.4,11.3-10.3,19.7,0.5c1.3,1.7,1.2,2.9-0.2,4.3
	c-9.3,9.7-18.6,19.6-28,29.2c-3.3,3.4-7.6,3.3-11.5-0.7c-9.3-9.5-18.3-19.3-27.5-29c-1.4-1.5-1-2.5,0.2-3.7c1.4-1.4,2.8-2.8,4.3-4.2
	c6.3-6.1,6.3-6.1,12.4,0.5c2.1,2.2,4.1,6.6,6.9,5.6c2.8-1.1,1.3-5.7,1.3-8.8C142.1,97.7,142,87.5,142,77.4z"/>
</svg>
