<?xml version="1.0" encoding="utf-8"?>
<!-- Generator: Adobe Illustrator 26.1.0, SVG Export Plug-In . SVG Version: 6.00 Build 0)  -->
<svg version="1.1" id="Layer_1" xmlns="http://www.w3.org/2000/svg" xmlns:xlink="http://www.w3.org/1999/xlink" x="0px" y="0px"
	 viewBox="0 0 128.7 143.8" style="enable-background:new 0 0 128.7 143.8;" xml:space="preserve">
<style type="text/css">
	.st0{fill:none;stroke:#FFFFFF;stroke-width:2.0006;stroke-linecap:round;stroke-miterlimit:4.0011;}
	.st1{fill:none;stroke:#FFFFFF;stroke-width:2;stroke-linecap:round;}
</style>
<g id="Group_65" transform="translate(-1248.817 -41.695)">
	<path id="line" class="st0" d="M1268.2,97.9c4.4-1.7,8.8-3.2,13.1-4.8c2.1,5,5.9,9.6,11,11.9c5.1,2.4,11.1,2.1,16.4,0.8l4.9,13.5
		c-4.9,1.7-10.1,2.3-15.3,1.9c-2.2-0.2-4.4-0.6-6.6-1.1c3.5,9.8,7.2,19.6,10.6,29.4c1.5,4.8,1.6,10,0.3,14.9
		c-2.1,8.2-8.1,14.9-15.9,18c-4.7,2-9.9,2.5-15,1.5c-8.4-1.6-15.5-7-19.2-14.7c-0.7-1.7-1.3-3.3-1.9-5c-3.7-14.4,5-29,19.4-32.7
		c0.6-0.1,1.2-0.3,1.7-0.4c1.9,4.9,3.5,10,5.3,15c-6.8,0.1-12.2,5.6-12.1,12.4c0,0,0,0,0,0.1c-0.1,2,0.8,3.8,1.5,5.6
		c2.8,5.2,9.8,7.9,15.3,5.4c3.8-1.5,6.5-4.8,7.3-8.8c0.4-1.3,0.4-2.7,0.1-4.1c-1.9-6.1-4.2-12.1-6.3-18.1
		C1278,124.9,1273,111.4,1268.2,97.9L1268.2,97.9z"/>
	<path id="line-2" class="st1" d="M1355.5,42.7c3,0.3,5.9,0.7,8.9,1c-0.3,3.6,0.7,7.1,2.8,10c2.2,2.8,5.7,4.4,9.1,5.3l-1.1,9.2
		c-3.3-0.5-6.4-1.6-9.3-3.4c-1.2-0.8-2.3-1.6-3.4-2.6c-0.8,6.6-1.6,13.3-2.5,19.9c-0.6,3.2-2,6.2-4.2,8.6c-3.6,4.1-8.9,6.1-14.3,5.6
		c-3.3-0.3-6.4-1.5-9-3.5c-4.3-3.3-6.8-8.5-6.7-14c0.1-1.1,0.2-2.3,0.4-3.4c2.1-9.3,11.3-15.1,20.6-13c0.4,0.1,0.7,0.2,1.1,0.3
		c-0.4,3.4-0.9,6.7-1.3,10.1c-3.9-1.9-8.6-0.3-10.5,3.6c0,0,0,0,0,0c-0.5,1.1-0.8,2.4-0.8,3.6c0.1,4,3.2,7.2,7.2,7.5
		c2.6,0.2,5.1-0.8,6.7-2.9c0.6-0.7,1-1.4,1.2-2.3c0.7-4,1.1-8.1,1.7-12.2C1353.2,61,1354.3,51.8,1355.5,42.7z"/>
</g>
</svg>
